# xmcd
#
# Track frame offsets:
#	150
#	8901
#	20872
#	30926
#	46003
#	59448
#	74779
#	86994
#	104906
#	120325
#	131297
#	143640
#	157727
#	175211
#	186989
#	203224
#	213101
#	225706
#	242068
#	254302
#	270436
#	283278
#	296452
#	305248
#	315690
#	326922
#
# Disc length: 4491 seconds
#
# Revision: 1
# Processed by: cddbd v1.5.2PL0 Copyright (c) Steve Scherf et al.
# Submitted via: EZCDAudioConverter 2.1.7.1
#
DISCID=8611891a
DTITLE=V/A - Millions Like Us 1/4
DYEAR=2014
DGENRE=
TTITLE0=New Hearts - Just Another Teenage Anthem
TTITLE1=The Exits - The Fashion Plague
TTITLE2=The Reactions - I Can't Resist
TTITLE3=Strangeways - All The Sounds Of Fear
TTITLE4=Sema 4 - Sema 4 Messages
TTITLE5=Speedball - No Survivors
TTITLE6=The Jolt - See Saw
TTITLE7=The Cigarettes - They're Back Again, Here They Come
TTITLE8=The Killermeters - Why Should It Happen To Me?
TTITLE9=The Donkeys - What I Want
TTITLE10=Secret Affair - Time For Action
TTITLE11=Purple Hearts - Millions Like Us
TTITLE12=The Chords - Now It's Gone
TTITLE13=Back To Zero - Your Side Of Heaven
TTITLE14=Squire - Walking Down The Kings Road
TTITLE15=Merton Parkas - Plastic Smile
TTITLE16=The Crooks - Modern Boys
TTITLE17=Untamed Youth - Untamed Youth
TTITLE18=First Steps - The Beat Is Back
TTITLE19=The Nips - Gabrielle
TTITLE20=Teenbeats - Strength Of The Nation
TTITLE21=The Lambrettas - Go Steady
TTITLE22=Long Tall Shorty - 1970's Boy
TTITLE23=Les Elite - Career Girls
TTITLE24=Beggar - Don't Throw Your Life Away [Live]
TTITLE25=The Mods - Let Me Be The One [Live]
EXTD=
EXTT0=
EXTT1=
EXTT2=
EXTT3=
EXTT4=
EXTT5=
EXTT6=
EXTT7=
EXTT8=
EXTT9=
EXTT10=
EXTT11=
EXTT12=
EXTT13=
EXTT14=
EXTT15=
EXTT16=
EXTT17=
EXTT18=
EXTT19=
EXTT20=
EXTT21=
EXTT22=
EXTT23=
EXTT24=
EXTT25=
PLAYORDER=
